G04 EAGLE Gerber RS-274X export*
G75*
%MOMM*%
%FSLAX34Y34*%
%LPD*%
%INTop Copper*%
%IPPOS*%
%AMOC8*
5,1,8,0,0,1.08239X$1,22.5*%
G01*
%ADD10C,1.320800*%
%ADD11C,1.524000*%
%ADD12C,1.270000*%
%ADD13C,4.978400*%
%ADD14C,1.208000*%


D10*
X-508000Y399796D02*
X-508000Y413004D01*
X-482600Y413004D02*
X-482600Y399796D01*
X-355600Y399796D02*
X-355600Y413004D01*
X-330200Y413004D02*
X-330200Y399796D01*
X-457200Y399796D02*
X-457200Y413004D01*
X-431800Y413004D02*
X-431800Y399796D01*
X-381000Y399796D02*
X-381000Y413004D01*
X-406400Y413004D02*
X-406400Y399796D01*
X-330200Y475996D02*
X-330200Y489204D01*
X-355600Y489204D02*
X-355600Y475996D01*
X-381000Y475996D02*
X-381000Y489204D01*
X-406400Y489204D02*
X-406400Y475996D01*
X-431800Y475996D02*
X-431800Y489204D01*
X-457200Y489204D02*
X-457200Y475996D01*
X-482600Y475996D02*
X-482600Y489204D01*
X-508000Y489204D02*
X-508000Y475996D01*
X-330200Y539496D02*
X-330200Y552704D01*
X-304800Y552704D02*
X-304800Y539496D01*
X-177800Y539496D02*
X-177800Y552704D01*
X-152400Y552704D02*
X-152400Y539496D01*
X-279400Y539496D02*
X-279400Y552704D01*
X-254000Y552704D02*
X-254000Y539496D01*
X-203200Y539496D02*
X-203200Y552704D01*
X-228600Y552704D02*
X-228600Y539496D01*
X-152400Y615696D02*
X-152400Y628904D01*
X-177800Y628904D02*
X-177800Y615696D01*
X-203200Y615696D02*
X-203200Y628904D01*
X-228600Y628904D02*
X-228600Y615696D01*
X-254000Y615696D02*
X-254000Y628904D01*
X-279400Y628904D02*
X-279400Y615696D01*
X-304800Y615696D02*
X-304800Y628904D01*
X-330200Y628904D02*
X-330200Y615696D01*
X-558800Y552704D02*
X-558800Y539496D01*
X-533400Y539496D02*
X-533400Y552704D01*
X-406400Y552704D02*
X-406400Y539496D01*
X-381000Y539496D02*
X-381000Y552704D01*
X-508000Y552704D02*
X-508000Y539496D01*
X-482600Y539496D02*
X-482600Y552704D01*
X-431800Y552704D02*
X-431800Y539496D01*
X-457200Y539496D02*
X-457200Y552704D01*
X-381000Y615696D02*
X-381000Y628904D01*
X-406400Y628904D02*
X-406400Y615696D01*
X-431800Y615696D02*
X-431800Y628904D01*
X-457200Y628904D02*
X-457200Y615696D01*
X-482600Y615696D02*
X-482600Y628904D01*
X-508000Y628904D02*
X-508000Y615696D01*
X-533400Y615696D02*
X-533400Y628904D01*
X-558800Y628904D02*
X-558800Y615696D01*
X-330200Y653796D02*
X-330200Y667004D01*
X-304800Y667004D02*
X-304800Y653796D01*
X-177800Y653796D02*
X-177800Y667004D01*
X-152400Y667004D02*
X-152400Y653796D01*
X-279400Y653796D02*
X-279400Y667004D01*
X-254000Y667004D02*
X-254000Y653796D01*
X-203200Y653796D02*
X-203200Y667004D01*
X-228600Y667004D02*
X-228600Y653796D01*
X-152400Y729996D02*
X-152400Y743204D01*
X-177800Y743204D02*
X-177800Y729996D01*
X-203200Y729996D02*
X-203200Y743204D01*
X-228600Y743204D02*
X-228600Y729996D01*
X-254000Y729996D02*
X-254000Y743204D01*
X-279400Y743204D02*
X-279400Y729996D01*
X-304800Y729996D02*
X-304800Y743204D01*
X-330200Y743204D02*
X-330200Y729996D01*
X-558800Y667004D02*
X-558800Y653796D01*
X-533400Y653796D02*
X-533400Y667004D01*
X-406400Y667004D02*
X-406400Y653796D01*
X-381000Y653796D02*
X-381000Y667004D01*
X-508000Y667004D02*
X-508000Y653796D01*
X-482600Y653796D02*
X-482600Y667004D01*
X-431800Y667004D02*
X-431800Y653796D01*
X-457200Y653796D02*
X-457200Y667004D01*
X-381000Y729996D02*
X-381000Y743204D01*
X-406400Y743204D02*
X-406400Y729996D01*
X-431800Y729996D02*
X-431800Y743204D01*
X-457200Y743204D02*
X-457200Y729996D01*
X-482600Y729996D02*
X-482600Y743204D01*
X-508000Y743204D02*
X-508000Y729996D01*
X-533400Y729996D02*
X-533400Y743204D01*
X-558800Y743204D02*
X-558800Y729996D01*
X-330200Y768096D02*
X-330200Y781304D01*
X-304800Y781304D02*
X-304800Y768096D01*
X-177800Y768096D02*
X-177800Y781304D01*
X-152400Y781304D02*
X-152400Y768096D01*
X-279400Y768096D02*
X-279400Y781304D01*
X-254000Y781304D02*
X-254000Y768096D01*
X-203200Y768096D02*
X-203200Y781304D01*
X-228600Y781304D02*
X-228600Y768096D01*
X-152400Y844296D02*
X-152400Y857504D01*
X-177800Y857504D02*
X-177800Y844296D01*
X-203200Y844296D02*
X-203200Y857504D01*
X-228600Y857504D02*
X-228600Y844296D01*
X-254000Y844296D02*
X-254000Y857504D01*
X-279400Y857504D02*
X-279400Y844296D01*
X-304800Y844296D02*
X-304800Y857504D01*
X-330200Y857504D02*
X-330200Y844296D01*
D11*
X-444500Y820420D02*
X-444500Y805180D01*
X-419100Y805180D02*
X-419100Y820420D01*
X-393700Y820420D02*
X-393700Y805180D01*
D12*
X-354584Y145034D03*
X-354584Y254000D03*
D13*
X-185166Y199390D03*
X-486918Y199390D03*
D14*
X-254000Y419100D03*
X-177800Y419100D03*
X-254000Y495300D03*
X-177800Y495300D03*
M02*
