M48
;GenerationSoftware,Autodesk,EAGLE,9.2.2*%
;CreationDate,2019-03-18T17:35:50Z*%
FMAT,2
ICI,OFF
METRIC,TZ,000.000
T5C0.700
T4C0.762
T3C0.813
T2C1.016
T1C3.962
%
G90
M71
T1
X-48692Y19939
X-18517Y19939
T2
X-39370Y81280
X-41910Y81280
X-44450Y81280
T3
X-43180Y40640
X-38100Y40640
X-40640Y40640
X-33020Y48260
X-35560Y48260
X-38100Y48260
X-40640Y48260
X-43180Y48260
X-45720Y48260
X-48260Y48260
X-50800Y48260
X-33020Y54610
X-30480Y54610
X-17780Y54610
X-15240Y54610
X-27940Y54610
X-25400Y54610
X-20320Y54610
X-22860Y54610
X-15240Y62230
X-17780Y62230
X-20320Y62230
X-22860Y62230
X-25400Y62230
X-27940Y62230
X-30480Y62230
X-33020Y62230
X-55880Y54610
X-53340Y54610
X-40640Y54610
X-38100Y54610
X-50800Y54610
X-48260Y54610
X-43180Y54610
X-45720Y54610
X-38100Y62230
X-40640Y62230
X-43180Y62230
X-45720Y62230
X-48260Y62230
X-50800Y62230
X-53340Y62230
X-55880Y62230
X-33020Y66040
X-30480Y66040
X-17780Y66040
X-15240Y66040
X-27940Y66040
X-25400Y66040
X-20320Y66040
X-22860Y66040
X-15240Y73660
X-17780Y73660
X-20320Y73660
X-22860Y73660
X-25400Y73660
X-27940Y73660
X-30480Y73660
X-33020Y73660
X-55880Y66040
X-53340Y66040
X-40640Y66040
X-38100Y66040
X-50800Y66040
X-48260Y66040
X-43180Y66040
X-45720Y66040
X-38100Y73660
X-40640Y73660
X-43180Y73660
X-45720Y73660
X-48260Y73660
X-50800Y73660
X-53340Y73660
X-55880Y73660
X-33020Y77470
X-30480Y77470
X-17780Y77470
X-15240Y77470
X-27940Y77470
X-25400Y77470
X-20320Y77470
X-22860Y77470
X-15240Y85090
X-17780Y85090
X-20320Y85090
X-22860Y85090
X-25400Y85090
X-27940Y85090
X-30480Y85090
X-33020Y85090
X-45720Y40640
X-33020Y40640
X-35560Y40640
X-50800Y40640
X-48260Y40640
T4
X-35458Y25400
X-35458Y14503
T5
X-25400Y41910
X-17780Y41910
X-25400Y49530
X-17780Y49530
M30